<?xml version="1.0" encoding="utf-8"?>
<!-- Generator: Adobe Illustrator 25.2.3, SVG Export Plug-In . SVG Version: 6.00 Build 0)  -->
<svg version="1.1" xmlns="http://www.w3.org/2000/svg" xmlns:xlink="http://www.w3.org/1999/xlink" x="0px" y="0px"
	 viewBox="0 0 3840 1000" style="enable-background:new 0 0 3840 1000;" xml:space="preserve">
<style type="text/css">
	.st0{display:none;}
	.st1{display:inline;fill:#D39D60;}
	.st2{fill:#5F7A86;}
	.st3{fill:#315463;}
	.st4{fill:#1A4152;}
</style>
<g id="Layer_1" class="st0">
	<polygon class="st1" points="1920,0 3840,648.6 3840,0 0,0 0,648.6 	"/>
</g>
<g id="Layer_2" class="st0">
	
		<image style="display:inline;overflow:visible;" width="1200" height="826" xlink:href="7D3054F3.jpg"  transform="matrix(2.2875 0 0 2.2875 2079.3103 -488.8621)">
	</image>
</g>
<g id="Layer_5">
	<path class="st2" d="M-11,343.1c28.6-8.9,126.6,4.6,198.9,8c16.3,0.8,36.5,1.3,50.6-9.2c1.9-1.4,5.1-4.1,10.3-5.7
		c12.2-3.9,23.6,1.5,31,4.6c39.5,16.7,57,7.2,86.2,20.7c3.4,1.5,8.4,4.1,14.9,3.4c9.8-1,11.9-7.9,20.7-8c5.9-0.1,7.2,3,17.2,6.9
		c8.2,3.1,14.3,3.7,20.7,4.6c37.2,5.3,45.5,16.5,69,13.8c21.8-2.5,27-13.7,55.2-13.8c7.8,0,7.1,0.8,16.1,1.1
		c36.4,1.3,44-12.8,74.7-12.6c23.7,0.2,25,8.6,46,5.7c7-1,17.3-3.3,32.2-2.3c1.1,0.1,8.1,0.6,16.1,2.3c40.4,8.7,72.3,40.7,108,35.6
		c23.3-3.3,28.3-19.6,55.2-18.4c9.4,0.4,15.1,2.7,27.6,1.1c10-1.2,16.6-4,31-4.6c0,0,6-0.3,11.5,0c19.9,1,34.2,9.9,46,14.9
		c23.5,10.1,45.9,8.5,52.9,8c25.7-1.8,35.1-11.8,66.7-11.5c6.4,0.1,8.8,0.5,14.9,0c22.6-1.8,27.5-10.6,43.7-12.6
		c4.1-0.5,2.8,0.2,42.5,9.2c22.6,5.1,28.4,6.1,36.8,5.7c13.6-0.6,17.9-4.2,28.7-5.7c23.4-3.4,42.3,7.6,50.6,11.5
		c72.7,34.1,288.5-30.2,329.9-42.5c3.4-1,8.2-2.5,14.9-3.4c53-7.7,91.4,34,124.1,54c131.2,80.3,381.4-58.1,397.7-69
		c1-0.7,5.2-3.6,11.5-5.7c17.4-6,33.4,0,41.4,2.3c42.1,12.1,60.5-21.7,95.4-6.9c18.7,7.9,18.7,19.8,41.4,26.4
		c14.3,4.1,25.9,2.8,39.1,1.1c32.1-4,57-16.9,103.4-41.4c14.8-7.8,12.3-6.9,14.9-8c54.5-22.3,100.1,37.4,193.1,58.6
		c3.6,0.8,28.1,2.8,77,6.9c131.2,10.9,188.4,11.4,225.3-8l0,0c13-6.5,26.7-11.5,41.4-14.9c18.5,4.4,30.3,1.5,37.9-2.3
		c8.4-4.2,14.1-10.8,27.6-13.8c4.2-0.9,8.9-2,14.9-1.1c13.4,1.9,14.3,10.7,26.4,13.8c9.6,2.5,18.6-0.5,31-4.6
		c12.3-4,13.4-7,21.1-7.1c8.5-0.1,11,3.5,22.6,6c7.3,1.5,12.6,1.4,21.8,1.1c19.6-0.5,22.6-4.5,41.4-4.6c6.4,0,13-0.1,21.8,1.1
		c16.1,2.2,18,5.7,29.9,5.7c10.3,0.1,12.4-2.5,21.8-1.1c8.5,1.2,14.2,4.3,17.2,5.7c10.6,5.1,18,5,48.3,8c49.6,5,43.8,6.9,60.9,6.9
		c20.1-0.1,37.2-2.7,49.4-4.6c24.5-3.8,26.4-6.3,41.4-6.9c21.8-0.8,20.9,4.4,46,4.6c12.3,0.1,30.8,0.3,52.9-5.7
		c17.7-4.8,14.8-4,21.8-4.6c35.3-2.8,68.3,19.5,68.3,19.5l0,0c0,0.6,83.4,529.8,7.6,728.7c-322.2,845.6-3472.8,865.3-3860.9-79.3
		C-105.4,786.8-98.7,370.4-11,343.1z"/>
	<path class="st2" d="M1485.5-277.6"/>
	<path class="st2" d="M2984.4-404"/>
</g>
<g id="Layer_4">
	<path class="st3" d="M0,327c33.4,8.5,56,4.4,70.6-1.1c10.8-4.1,18.9-9.6,32.2-9.2c19,0.6,32.5,12.9,39.1,18.4
		c15,12.4,41.8,21.3,95.4,39.1c66.5,22,76.6,9.6,125.3,31c26.7,11.8,18.9,13.4,65.5,40.2c50.4,29.1,121.8,70.2,170.1,58.6
		c5.9-1.4,19.6-5.5,39.1-5.7c21.2-0.2,25,4.4,39.1,3.4c26.8-1.9,32.3-20.1,55.2-26.4c21.2-5.8,30,6.1,73.6,20.7
		c19.5,6.5,67.9,22.3,124.1,19.5c23.3-1.1,25.1-4.3,64.4-6.9c48.1-3.1,46,1.6,66.7-2.3c38.3-7.3,43.8-23.3,90.8-36.8
		c29.3-8.4,25.2-1.6,50.6-9.2c43-12.9,74.4-38.3,137.9-75.9c2.8-1.6,7.8-4.6,14.9-6.9c22.4-7.3,36.9,0.7,55.2,2.3
		c19.7,1.7,19-6.2,98.9-33.3c20.1-6.8,26-8.3,34.5-8c26.4,0.9,33.3,17.6,58.6,27.6c31,12.2,43.7-3.9,98.9-2.3
		c31.2,0.9,51.5,6.8,67.8,10.3c79.1,17.3,253.3,21.7,423-6.9c6.8-1.2,163.8-28,209.2-52.9c2.7-1.5,13.4-7.6,28.7-10.3
		c22.3-4,40.4,1.5,57.5,6.9c78.6,25,89.1,31.7,113.8,32.2c6.9,0.1,21.5-2.6,50.6-8c101.2-19,119.9-26.2,157.5-24.1
		c27.3,1.5,17.3,5.3,60.9,10.3c70.8,8.3,90.4-2.5,131,13.8c26.1,10.5,21.4,16.3,52.9,28.7c31.9,12.6,59.3,23.5,89.7,16.1
		c31.9-7.8,47.3-30.9,74.7-24.1c4.6,1.1,6.1,2.2,18.4,5.7c17.2,4.9,29.3,8.3,41.4,9.2c29.5,2.1,36-12.7,58.6-6.9
		c13.7,3.5,11.1,8.9,25.3,13.8c5.3,1.8,21,6.3,78.2-12.6c16.6-5.5,21.1-11.1,34.5-12.6c14.8-1.7,26.5,1.5,36.8,4.6
		c33.9,10.4,58.4,22.4,87.4,35.6c27.9,12.7,41.8,19.1,54,23c23.6,7.5,47.2,14.7,74.7,9.2c6.5-1.3,15.8-4.7,34.5-11.5
		c27.3-9.9,33.5-14.2,47.1-16.1c0,0,19.6-2.8,40.2,3.4c44.8,13.5,47.9,422.9-8.7,589.1c-260.4,763.8-3370.8,1042.1-3840,0
		C-95.6,777.4-68,540.7,0,327z"/>
	<path class="st3" d="M3072.9-442"/>
</g>
<g id="Layer_3">
	<path class="st4" d="M0,764.9c63.7-70.5,151.4-21.5,406.2-83.9c103.2-25.3,114.9-39.7,233.3-64.4c90-18.8,109-15.8,234.5-41.4
		c39.2-8,105.5-21.5,192-43.7c133.3-34.2,128.6-41.3,177-44.8c60.3-4.4,90.1,5.1,183.9-3.4c30.1-2.7,49.7-4.5,73.6-9.2
		c93.2-18.4,119-55.4,239.1-112.6c72.7-34.7,114.1-53.9,175.9-60.9c61.2-6.9,113.6,1.5,146,6.9c54.9,9.2,59,17.3,158.6,42.5
		c35.4,9,67.7,15.9,132.2,29.9c71.5,15.4,107.2,23.2,140.2,28.7c73.8,12.5,86.2,10,127.6,21.8c50.4,14.5,84.9,33.3,102.3,42.5
		c49.2,26,237.4,125.2,437.9,157.5c79.3,12.8,115.3,7.8,211.5,32.2c71.8,18.2,84.4,28.2,142.5,44.8c199.2,57,290.1,2.9,341.4,59.8
		c61,67.7-2.4,217.1-12.6,241.4c-236.2,556.8-3691.4,617.8-3866.7,14.9C-30.4,1000.3-74.8,847.7,0,764.9z"/>
</g>
</svg>
