<svg xmlns="http://www.w3.org/2000/svg" viewBox="0 0 31.99 31.99"><defs><style>.cls-1{fill:#fff;fill-rule:evenodd;}</style></defs><g id="Layer_2" data-name="Layer 2"><g id="Layer_1-2" data-name="Layer 1"><path class="cls-1" d="M16,0a16,16,0,0,0-5.06,31.18c.8.14,1.05-.33,1.05-.76s0-1.44,0-2.77c-4.45,1-5.37-2.11-5.37-2.11A4.25,4.25,0,0,0,4.85,23.2c-1.46-1,.11-1,.11-1a3.36,3.36,0,0,1,2.45,1.65,3.4,3.4,0,0,0,4.65,1.32,3.41,3.41,0,0,1,1-2.13c-3.55-.41-7.29-1.78-7.29-7.91a6.15,6.15,0,0,1,1.65-4.29,5.73,5.73,0,0,1,.15-4.24S8.94,6.2,12,8.27a15.4,15.4,0,0,1,8,0c3.06-2.07,4.4-1.64,4.4-1.64a5.8,5.8,0,0,1,.16,4.24,6.18,6.18,0,0,1,1.64,4.29c0,6.15-3.74,7.5-7.3,7.89A3.82,3.82,0,0,1,20,26v4.43c0,.43.26.9,1.07.74A16,16,0,0,0,16,0Z"/></g></g></svg>