<svg xmlns="http://www.w3.org/2000/svg" viewBox="0 0 1000 1000"><defs><style>.cls-1{fill:#fff;fill-rule:evenodd;}.cls-2{fill:#1a4152;}</style></defs><g id="Layer_2" data-name="Layer 2"><g id="Layer_1-2" data-name="Layer 1"><g id="g5891"><path id="background" class="cls-1" d="M1000,125A125.06,125.06,0,0,0,875,0H125A125.06,125.06,0,0,0,0,125V875a125.06,125.06,0,0,0,125,125H875a125.06,125.06,0,0,0,125-125Z"/><g id="shapes"><rect id="rect11" class="cls-2" x="119.24" y="348.96" width="167.5" height="503.83"/><path id="path13-0" class="cls-2" d="M204.13,106c-57.31,0-94.75,37.67-94.75,87.05,0,48.35,36.3,87.06,92.53,87.06H203c58.4,0,94.76-38.71,94.76-87.06-1.09-49.38-36.35-87-93.63-87Z"/><path id="path15" class="cls-2" d="M697.81,337.11c-88.85,0-128.65,48.86-150.93,83.18V349H379.42c2.22,47.26,0,503.83,0,503.83H546.88V571.41c0-15.06,1.08-30.11,5.52-40.88,12.08-30.07,39.66-61.23,85.92-61.23,60.57,0,84.84,46.22,84.84,113.92V852.79H890.62V563.86C890.62,409.1,808,337.11,697.81,337.11Z"/></g></g></g></g></svg>