<svg xmlns="http://www.w3.org/2000/svg" viewBox="0 0 1000 812.55"><defs><style>.cls-1{fill:#fff;}</style></defs><g id="Layer_2" data-name="Layer 2"><g id="Layer_1-2" data-name="Layer 1"><path class="cls-1" d="M314.48,812.55c377.36,0,583.76-312.64,583.76-583.76,0-8.88,0-17.72-.6-26.52A417.26,417.26,0,0,0,1000,96.07a409.67,409.67,0,0,1-117.84,32.28,205.9,205.9,0,0,0,90.2-113.48,411.15,411.15,0,0,1-130.28,49.8A205.44,205.44,0,0,0,692.48,0C579.82,0,487.12,92.7,487.12,205.36a205.53,205.53,0,0,0,5.32,46.43A582.73,582.73,0,0,1,69.6,37.43c-54.15,93.22-26.13,214,63.52,273.88A203.6,203.6,0,0,1,40,285.63v2.6c0,97.29,69.23,181.86,164.6,201.12A204.83,204.83,0,0,1,112,492.87,205.81,205.81,0,0,0,303.64,635.35a411.77,411.77,0,0,1-254.8,88,417.49,417.49,0,0,1-48.84-3,580.86,580.86,0,0,0,314.48,92"/></g></g></svg>